<?xml version="1.0" encoding="UTF-8" standalone="no"?>
<!-- Created with Inkscape (http://www.inkscape.org/) -->

<svg
   width="133.33334"
   height="96"
   viewBox="0 0 35.27778 25.399999"
   version="1.1"
   id="svg5"
   xmlns="http://www.w3.org/2000/svg"
   xmlnsSvg="http://www.w3.org/2000/svg">
  <defs
     id="defs2" />
  <g
     id="layer1"
     transform="translate(-302.43304,-145.60543)">
    <path
       style="fill:#814603;stroke-width:0.352778;fill-opacity:1;stroke:none;stroke-opacity:1"
       d="m 302.43304,158.30543 v -12.7 h 17.63889 17.63889 v 12.7 12.7 h -17.63889 -17.63889 z m 33.86666,10.40828 c 0,-0.71159 -0.98315,-1.66201 -5.12277,-4.95216 l -5.12278,-4.07156 -1.94929,1.58789 c -3.15024,2.56616 -5.04825,2.52902 -8.23873,-0.16123 l -1.72564,-1.45508 -5.14817,4.09174 c -4.14445,3.294 -5.14817,4.26227 -5.14817,4.96638 v 0.87463 h 16.22778 16.22777 z m -24.17603,-9.1911 c 0.57617,-0.45492 0.97304,-0.88524 0.88194,-0.95627 -0.0911,-0.071 -1.99125,-1.71603 -4.22257,-3.65554 -2.23132,-1.93951 -4.25538,-3.6454 -4.49792,-3.79086 -0.34732,-0.20832 -0.44097,1.35281 -0.44097,7.35135 v 7.61584 l 3.61597,-2.8687 c 1.98879,-1.57779 4.08738,-3.24091 4.66355,-3.69582 z m 24.09958,-4.79509 -0.0999,-3.96978 -4.53441,4.00092 -4.5344,4.00092 1.00662,0.79151 c 0.55365,0.43534 2.59413,2.0487 4.53441,3.58525 l 3.52778,2.79373 0.0999,-3.61638 c 0.055,-1.98901 0.055,-5.40278 0,-7.58617 z m -14.12511,6.31194 c 0.6184,-0.43657 4.05468,-3.33375 7.63617,-6.4382 5.41555,-4.69421 6.51632,-5.80776 6.5386,-6.61458 l 0.0268,-0.97014 h -16.22777 -16.22778 v 0.86969 c 0,0.68844 1.41524,2.1083 6.79097,6.81316 3.73504,3.26891 7.18348,6.2113 7.66322,6.53864 1.1915,0.81302 2.46082,0.74669 3.7998,-0.19857 z"
       id="path833" />
  </g>
</svg>
