<?xml version="1.0" encoding="UTF-8" standalone="no"?>
<!-- Created with Inkscape (http://www.inkscape.org/) -->

<svg
   width="45.999989"
   height="40.915234"
   viewBox="0 0 12.17083 10.825489"
   version="1.1"
   id="svg5"
   xmlns="http://www.w3.org/2000/svg"
   xmlnsSvg="http://www.w3.org/2000/svg">
  <defs
     id="defs2" />
  <g
     id="layer1"
     transform="translate(-4.7207777,-4.3864981)">
    <path
       style="fill:#34496b;fill-opacity:1;stroke-width:0.264583"
       d="m 9.2186877,14.151278 c -3.42704,-2.44417 -4.49791,-3.91969 -4.49791,-6.1975499 0,-2.27819 1.24291,-3.56723 3.43958,-3.56723 0.59654,0 1.43589,0.18165 1.8652203,0.40367 0.69972,0.36184 0.86151,0.36184 1.56122,0 0.42934,-0.22202 1.26869,-0.40367 1.86523,-0.40367 2.19667,0 3.43958,1.28904 3.43958,3.56723 0,2.3084499 -1.0103,3.7151999 -4.33963,6.0425699 -0.97413,0.68096 -1.7952,1.22793 -1.82461,1.21548 -0.0294,-0.0125 -0.70831,-0.48968 -1.5086803,-1.0605 z"
       id="path1425" />
  </g>
</svg>
